<svg xmlns="http://www.w3.org/2000/svg" xmlns:xlink="http://www.w3.org/1999/xlink" width="366.214" height="240.193" viewBox="0 0 366.214 240.193"><defs><style>.a{fill:url(#a);}.b{fill:url(#b);}.c{fill:url(#c);}.d{fill:url(#d);}.e{fill:#ffffff;}</style><linearGradient id="a" x1="0.367" y1="0.28" x2="0.896" y2="1.104" gradientUnits="objectBoundingBox"><stop offset="0" stop-color="#344da1"/><stop offset="1" stop-color="#786fb3"/></linearGradient><linearGradient id="b" x1="0.249" y1="0.837" x2="0.689" y2="0.284" gradientUnits="objectBoundingBox"><stop offset="0" stop-color="#ec2b3d"/><stop offset="1" stop-color="#f05765"/></linearGradient><linearGradient id="c" x1="0.461" y1="0.377" x2="-0.11" y2="0.769" xlink:href="#a"/><linearGradient id="d" x1="0.421" y1="1.324" x2="0.506" y2="0.377" gradientUnits="objectBoundingBox"><stop offset="0" stop-color="#28dfa0"/><stop offset="1" stop-color="#5fc9e0"/></linearGradient></defs><g transform="translate(-1240.711 -603.17)"><g transform="translate(1352 603.17)"><path class="a" d="M520.561,173.52l61.662,106.8a14.788,14.788,0,0,0,20.2,5.413h0a14.788,14.788,0,0,0,5.413-20.2l-57.392-99.407a14.788,14.788,0,0,0-20.2-5.413C526.758,162.254,523.622,167.489,520.561,173.52Z" transform="translate(-465.416 -158.73)"/><path class="b" d="M330.5,166.384l-.018.105a14.714,14.714,0,0,0-5.434-5.453h0a14.788,14.788,0,0,0-20.2,5.413l-57.392,99.407a14.788,14.788,0,0,0,5.413,20.2h0a14.788,14.788,0,0,0,20.2-5.413l53.946-93.438h0s7.646-10.959,15.293-.369Z" transform="translate(-245.467 -158.988)"/><path class="c" d="M331.717,588.241h0a14.788,14.788,0,0,0-18.131-10.422l-44.711,12.07.1-.049s-16.318,1.442-7.983-13.049l-13.834,24.05.216-.109a14.734,14.734,0,0,0-1.107,10.579h0A14.788,14.788,0,0,0,264.4,621.733l56.9-15.361,11.323-3.232S332.706,591.9,331.717,588.241Z" transform="translate(-245.693 -492.987)"/><path class="d" d="M502.2,578.811h0a14.866,14.866,0,0,0-2.655.242h0a14.687,14.687,0,0,0-2.367.634l-20.83,5.58c9.656-1.591,10.931,7.032,11.066,10.393v46.1A14.788,14.788,0,0,0,502.2,656.552h0a14.788,14.788,0,0,0,14.788-14.788V593.6A14.788,14.788,0,0,0,502.2,578.811Z" transform="translate(-430.068 -494.602)"/></g><g transform="translate(458.648 162.191)"><path class="e" d="M782.063,680.736v-49.1H792.23v18.072a16.528,16.528,0,0,1,3.985-2.541,12.431,12.431,0,0,1,5.133-.968,11.91,11.91,0,0,1,4.936.968,10.236,10.236,0,0,1,3.624,2.689,11.61,11.61,0,0,1,2.23,4.1,17.009,17.009,0,0,1,.755,5.166v21.614H802.725V659.122a5.95,5.95,0,0,0-1.148-3.886,4.124,4.124,0,0,0-3.378-1.394,7.079,7.079,0,0,0-3.148.721,12.276,12.276,0,0,0-2.821,1.935v24.238Z" transform="translate(0 -0.089)"/><path class="e" d="M860.063,687.266a4.763,4.763,0,0,1-2.181-.394,3.009,3.009,0,0,1-1.23-1.64l-.721-1.869q-1.28,1.081-2.46,1.9a15.569,15.569,0,0,1-2.443,1.395,12.131,12.131,0,0,1-2.69.852,16.544,16.544,0,0,1-3.165.279,13.819,13.819,0,0,1-4.231-.609,8.813,8.813,0,0,1-3.23-1.793,7.878,7.878,0,0,1-2.05-2.945,10.649,10.649,0,0,1-.721-4.064,8.552,8.552,0,0,1,.918-3.718,9.154,9.154,0,0,1,3.181-3.471,20.179,20.179,0,0,1,6.1-2.615,37.289,37.289,0,0,1,9.675-1.053v-1.456a6.336,6.336,0,0,0-1.23-4.353,4.5,4.5,0,0,0-3.493-1.34,9.293,9.293,0,0,0-2.952.393,13.286,13.286,0,0,0-2.05.886q-.9.492-1.754.885a4.825,4.825,0,0,1-2.034.394,3.072,3.072,0,0,1-1.787-.508,3.784,3.784,0,0,1-1.165-1.263l-1.836-3.181a20.661,20.661,0,0,1,6.839-4.051A23.97,23.97,0,0,1,851.4,652.6a14.742,14.742,0,0,1,5.559,1,11.985,11.985,0,0,1,4.2,2.788,12.183,12.183,0,0,1,2.64,4.247,15.268,15.268,0,0,1,.918,5.378v21.254Zm-11.676-6.2a8.066,8.066,0,0,0,3.444-.688,10.477,10.477,0,0,0,2.985-2.231v-4.657a26.148,26.148,0,0,0-5.018.4,12.134,12.134,0,0,0-3.116.993,3.783,3.783,0,0,0-1.59,1.356,3.228,3.228,0,0,0-.443,1.654,2.884,2.884,0,0,0,.951,2.465A4.6,4.6,0,0,0,848.387,681.067Z" transform="translate(-16.473 -6.619)"/><path class="e" d="M912.2,661.383a5.636,5.636,0,0,1-.885.885,1.959,1.959,0,0,1-1.214.328,2.606,2.606,0,0,1-1.361-.361q-.607-.36-1.361-.8a10.453,10.453,0,0,0-1.771-.8,7.637,7.637,0,0,0-2.526-.361,7.078,7.078,0,0,0-3.231.688,5.981,5.981,0,0,0-2.246,1.968,9.009,9.009,0,0,0-1.313,3.133,18.71,18.71,0,0,0-.426,4.182q0,4.888,1.886,7.511a6.05,6.05,0,0,0,5.2,2.624,7.267,7.267,0,0,0,2.8-.443,8.488,8.488,0,0,0,1.754-.984q.722-.541,1.329-1a2.452,2.452,0,0,1,1.525-.459,2.1,2.1,0,0,1,1.837.886l2.951,3.64a16.048,16.048,0,0,1-3.312,2.935,16.658,16.658,0,0,1-3.559,1.772,18.382,18.382,0,0,1-3.657.885,26.95,26.95,0,0,1-3.574.246,15.332,15.332,0,0,1-5.953-1.181,14.564,14.564,0,0,1-4.985-3.427,16.409,16.409,0,0,1-3.411-5.526,20.7,20.7,0,0,1-1.263-7.478,20.985,20.985,0,0,1,1.1-6.871,15.574,15.574,0,0,1,3.247-5.543,15.082,15.082,0,0,1,5.313-3.69,18.619,18.619,0,0,1,7.331-1.345,17.878,17.878,0,0,1,7.018,1.279,16.833,16.833,0,0,1,5.444,3.739Z" transform="translate(-32.204 -6.678)"/><path class="e" d="M945.146,631.637v27.517h1.508a3.247,3.247,0,0,0,1.46-.262,2.738,2.738,0,0,0,.968-.951l6.428-9.577a3.5,3.5,0,0,1,1.328-1.246,4.279,4.279,0,0,1,1.952-.394h9.315l-8.79,12.1a9.592,9.592,0,0,1-1.361,1.509,11.318,11.318,0,0,1-1.59,1.181,10,10,0,0,1,2.558,2.951l9.577,16.268h-9.183a4.8,4.8,0,0,1-1.984-.377,2.944,2.944,0,0,1-1.361-1.329l-6.428-12.036a2.522,2.522,0,0,0-.951-1.066,3.417,3.417,0,0,0-1.476-.246h-1.968v15.055H934.979v-49.1Z" transform="translate(-47.638 -0.089)"/><path class="e" d="M1012.6,687.266a4.759,4.759,0,0,1-2.181-.394,3.007,3.007,0,0,1-1.23-1.64l-.721-1.869q-1.28,1.081-2.46,1.9a15.566,15.566,0,0,1-2.443,1.395,12.132,12.132,0,0,1-2.69.852,16.542,16.542,0,0,1-3.164.279,13.824,13.824,0,0,1-4.231-.609,8.807,8.807,0,0,1-3.23-1.793,7.894,7.894,0,0,1-2.05-2.945,10.649,10.649,0,0,1-.721-4.064,8.551,8.551,0,0,1,.918-3.718,9.165,9.165,0,0,1,3.182-3.471,20.179,20.179,0,0,1,6.1-2.615,37.291,37.291,0,0,1,9.676-1.053v-1.456a6.332,6.332,0,0,0-1.231-4.353,4.5,4.5,0,0,0-3.493-1.34,9.285,9.285,0,0,0-2.951.393,13.253,13.253,0,0,0-2.05.886q-.9.492-1.755.885a4.823,4.823,0,0,1-2.034.394,3.073,3.073,0,0,1-1.787-.508,3.773,3.773,0,0,1-1.164-1.263l-1.837-3.181a20.664,20.664,0,0,1,6.838-4.051,23.975,23.975,0,0,1,8.052-1.328,14.74,14.74,0,0,1,5.56,1,11.986,11.986,0,0,1,4.2,2.788,12.182,12.182,0,0,1,2.64,4.247,15.266,15.266,0,0,1,.918,5.378v21.254Zm-11.676-6.2a8.064,8.064,0,0,0,3.444-.688,10.49,10.49,0,0,0,2.985-2.231v-4.657a26.15,26.15,0,0,0-5.019.4,12.118,12.118,0,0,0-3.115.993,3.774,3.774,0,0,0-1.59,1.356,3.228,3.228,0,0,0-.443,1.654,2.884,2.884,0,0,0,.952,2.465A4.6,4.6,0,0,0,1000.923,681.067Z" transform="translate(-63.993 -6.619)"/><path class="e" d="M1064.736,661.383a5.633,5.633,0,0,1-.886.885,1.958,1.958,0,0,1-1.213.328,2.609,2.609,0,0,1-1.362-.361q-.607-.36-1.36-.8a10.463,10.463,0,0,0-1.771-.8,7.635,7.635,0,0,0-2.526-.361,7.075,7.075,0,0,0-3.23.688,5.988,5.988,0,0,0-2.246,1.968,9.006,9.006,0,0,0-1.312,3.133,18.71,18.71,0,0,0-.426,4.182q0,4.888,1.886,7.511a6.052,6.052,0,0,0,5.2,2.624,7.264,7.264,0,0,0,2.8-.443,8.5,8.5,0,0,0,1.755-.984q.721-.541,1.329-1a2.451,2.451,0,0,1,1.525-.459,2.1,2.1,0,0,1,1.837.886l2.952,3.64a16.054,16.054,0,0,1-3.313,2.935,16.63,16.63,0,0,1-3.559,1.772,18.375,18.375,0,0,1-3.656.885,26.961,26.961,0,0,1-3.575.246,15.331,15.331,0,0,1-5.953-1.181,14.563,14.563,0,0,1-4.985-3.427,16.42,16.42,0,0,1-3.411-5.526,20.7,20.7,0,0,1-1.262-7.478,21,21,0,0,1,1.1-6.871,15.6,15.6,0,0,1,3.247-5.543,15.085,15.085,0,0,1,5.314-3.69,18.615,18.615,0,0,1,7.33-1.345,17.881,17.881,0,0,1,7.019,1.279,16.846,16.846,0,0,1,5.444,3.739Z" transform="translate(-79.724 -6.678)"/><path class="e" d="M1087.515,680.736v-49.1h10.167v18.072a16.512,16.512,0,0,1,3.985-2.541,12.429,12.429,0,0,1,5.133-.968,11.906,11.906,0,0,1,4.936.968,10.239,10.239,0,0,1,3.625,2.689,11.624,11.624,0,0,1,2.23,4.1,16.991,16.991,0,0,1,.755,5.166v21.614h-10.168V659.122a5.946,5.946,0,0,0-1.148-3.886,4.122,4.122,0,0,0-3.378-1.394,7.082,7.082,0,0,0-3.149.721,12.27,12.27,0,0,0-2.821,1.935v24.238Z" transform="translate(-95.158 -0.089)"/><path class="e" d="M1154.184,637.321a5.361,5.361,0,0,1-.492,2.279,5.966,5.966,0,0,1-1.345,1.87,6.563,6.563,0,0,1-1.984,1.279,6.148,6.148,0,0,1-2.41.476,5.712,5.712,0,0,1-2.328-.476,6.529,6.529,0,0,1-1.919-1.279,5.881,5.881,0,0,1-1.312-1.87,5.517,5.517,0,0,1-.475-2.279,5.719,5.719,0,0,1,.475-2.328,6.038,6.038,0,0,1,1.312-1.9,6.16,6.16,0,0,1,1.919-1.278,5.9,5.9,0,0,1,2.328-.459,6.354,6.354,0,0,1,2.41.459,6.2,6.2,0,0,1,1.984,1.278,6.123,6.123,0,0,1,1.345,1.9A5.555,5.555,0,0,1,1154.184,637.321ZM1153,646.635v34.012h-10.167V646.635Z" transform="translate(-112.106)"/><path class="e" d="M1183.481,652.789a17.5,17.5,0,0,1,6.182,1.05,13.436,13.436,0,0,1,4.821,3.05,13.922,13.922,0,0,1,3.149,4.9,18,18,0,0,1,1.131,6.576,14.387,14.387,0,0,1-.1,1.87,2.966,2.966,0,0,1-.361,1.148,1.375,1.375,0,0,1-.7.591,3.3,3.3,0,0,1-1.132.164h-19.613q.492,4.264,2.591,6.182a7.7,7.7,0,0,0,5.411,1.919,9.691,9.691,0,0,0,3.051-.427,15.391,15.391,0,0,0,2.279-.951q1-.525,1.837-.951a3.812,3.812,0,0,1,1.755-.427,2.1,2.1,0,0,1,1.836.886l2.952,3.64a15.083,15.083,0,0,1-3.395,2.935,17.658,17.658,0,0,1-3.738,1.772,20.281,20.281,0,0,1-3.838.885,28.8,28.8,0,0,1-3.656.246,19.1,19.1,0,0,1-6.707-1.164,15.4,15.4,0,0,1-5.478-3.461,16.3,16.3,0,0,1-3.706-5.707,21.317,21.317,0,0,1-1.361-7.937,17.968,17.968,0,0,1,1.164-6.461,15.691,15.691,0,0,1,8.626-8.986A17.427,17.427,0,0,1,1183.481,652.789Zm.2,7.019a6.131,6.131,0,0,0-4.559,1.656,8.629,8.629,0,0,0-2.165,4.773h12.693a8.995,8.995,0,0,0-.311-2.361,5.745,5.745,0,0,0-1.018-2.05,5.175,5.175,0,0,0-1.853-1.46A6.347,6.347,0,0,0,1183.678,659.808Z" transform="translate(-119.823 -6.678)"/><path class="e" d="M1237.048,687.563h-9.25l-13.184-34.012h8.462a3.134,3.134,0,0,1,1.82.508,2.543,2.543,0,0,1,1,1.263l4.722,15.252q.558,1.869,1.066,3.641t.87,3.542q.359-1.77.885-3.542t1.115-3.641l4.92-15.252a2.563,2.563,0,0,1,.984-1.263,2.886,2.886,0,0,1,1.706-.508h8.067Z" transform="translate(-134.753 -6.916)"/><path class="e" d="M1284.19,652.789a17.5,17.5,0,0,1,6.182,1.05,13.435,13.435,0,0,1,4.821,3.05,13.922,13.922,0,0,1,3.149,4.9,18,18,0,0,1,1.131,6.576,14.387,14.387,0,0,1-.1,1.87,2.966,2.966,0,0,1-.361,1.148,1.374,1.374,0,0,1-.7.591,3.3,3.3,0,0,1-1.132.164h-19.613q.492,4.264,2.591,6.182a7.7,7.7,0,0,0,5.411,1.919,9.691,9.691,0,0,0,3.051-.427,15.389,15.389,0,0,0,2.279-.951q1-.525,1.837-.951a3.812,3.812,0,0,1,1.755-.427,2.1,2.1,0,0,1,1.836.886l2.952,3.64a15.083,15.083,0,0,1-3.395,2.935,17.656,17.656,0,0,1-3.738,1.772,20.278,20.278,0,0,1-3.838.885,28.8,28.8,0,0,1-3.656.246,19.1,19.1,0,0,1-6.707-1.164,15.4,15.4,0,0,1-5.478-3.461,16.3,16.3,0,0,1-3.706-5.707,21.307,21.307,0,0,1-1.361-7.937,17.968,17.968,0,0,1,1.164-6.461,15.691,15.691,0,0,1,8.626-8.986A17.428,17.428,0,0,1,1284.19,652.789Zm.2,7.019a6.131,6.131,0,0,0-4.559,1.656,8.63,8.63,0,0,0-2.165,4.773h12.693a8.995,8.995,0,0,0-.311-2.361,5.741,5.741,0,0,0-1.018-2.05,5.174,5.174,0,0,0-1.853-1.46A6.346,6.346,0,0,0,1284.387,659.808Z" transform="translate(-151.197 -6.678)"/></g></g></svg>