<svg xmlns="http://www.w3.org/2000/svg" xmlns:xlink="http://www.w3.org/1999/xlink" width="252.984" height="44" viewBox="0 0 252.984 44"><defs><style>.a{fill:none;}.b{fill:#d5d5d5;}.c{fill:#fff;}.d{clip-path:url(#a);}.e{fill:#fbbc05;}.f{fill:#ea4335;}.g{fill:#34a853;}.h{fill:#4285f4;}.i{fill:#747474;font-size:14px;font-family:Roboto-Bold, Roboto;font-weight:700;}</style><clipPath id="a"><path class="a" d="M538.045,890.182h-9.318v3.863h5.364c-.5,2.455-2.591,3.864-5.364,3.864a5.909,5.909,0,0,1,0-11.818,5.783,5.783,0,0,1,3.682,1.318l2.909-2.909a9.994,9.994,0,1,0-6.591,17.5c5,0,9.546-3.636,9.546-10A8.256,8.256,0,0,0,538.045,890.182Z"/></clipPath></defs><g transform="translate(-659.008 -531)"><rect class="b" width="252.984" height="43" rx="5.549" transform="translate(659.008 532)"/><rect class="c" width="252.984" height="43" rx="5.549" transform="translate(659.008 531)"/><g transform="translate(179 -339)"><g class="d"><path class="e" d="M517.818,897.909V886.091L525.545,892Z"/></g><g class="d"><path class="f" d="M517.818,886.091,525.545,892l3.182-2.773,10.909-1.772v-6.364H517.818Z"/></g><g class="d"><path class="g" d="M517.818,897.909l13.637-10.454,3.59.454,4.591-6.818v21.818H517.818Z"/></g><g class="d"><path class="h" d="M539.636,902.909,525.545,892l-1.818-1.364,15.909-4.545Z"/></g></g><text class="i" transform="translate(724.153 558.145)"><tspan x="0" y="0">LOG IN WITH GOOGLE</tspan></text></g></svg>