<svg xmlns="http://www.w3.org/2000/svg" xmlns:xlink="http://www.w3.org/1999/xlink" width="500" height="900" viewBox="0 0 500 900"><defs><style>.a{fill:none;}.b{clip-path:url(#a);}.c{fill:#212356;}.d{opacity:0.879;}.e{fill:#25295c;}</style><clipPath id="a"><rect class="a" width="500" height="900"/></clipPath></defs><g class="b"><g transform="translate(-612.802 -2001)"><rect class="c" width="364" height="191" transform="translate(613 2001)"/><g class="d" transform="translate(-3472 -1882)"><rect class="a" width="363" height="191" transform="translate(4085 3883)"/><path class="e" d="M0,0H114.941a19.351,19.351,0,0,1,19.351,19.351v0A19.351,19.351,0,0,1,114.941,38.7H0a0,0,0,0,1,0,0V0A0,0,0,0,1,0,0Z" transform="translate(4084.802 3883.023)"/><rect class="e" width="168.332" height="38.702" rx="19.351" transform="translate(4119.308 4004.725)"/><rect class="e" width="85.798" height="38.702" rx="19.351" transform="translate(4084.802 3940.843)"/><rect class="e" width="141.287" height="38.702" rx="19.351" transform="translate(4275.515 3940.843)"/><rect class="e" width="85.798" height="38.702" rx="19.351" transform="translate(4250.336 3883.023)"/><path class="e" d="M19.351,0H80.2a0,0,0,0,1,0,0V38.7a0,0,0,0,1,0,0H19.351A19.351,19.351,0,0,1,0,19.351v0A19.351,19.351,0,0,1,19.351,0Z" transform="translate(4368.376 3883.023)"/><rect class="e" width="61.551" height="38.702" rx="19.351" transform="translate(4386.026 4004.725)"/><rect class="e" width="39.635" height="38.702" rx="19.351" transform="translate(4203.239 3940.843)"/><rect class="e" width="39.635" height="38.702" rx="19.351" transform="translate(4320.745 4004.725)"/></g></g><g transform="translate(-249.802 -2001)"><rect class="c" width="364" height="191" transform="translate(613 2001)"/><g class="d" transform="translate(-3472 -1882)"><rect class="a" width="363" height="191" transform="translate(4085 3883)"/><path class="e" d="M0,0H114.941a19.351,19.351,0,0,1,19.351,19.351v0A19.351,19.351,0,0,1,114.941,38.7H0a0,0,0,0,1,0,0V0A0,0,0,0,1,0,0Z" transform="translate(4084.802 3883.023)"/><rect class="e" width="168.332" height="38.702" rx="19.351" transform="translate(4119.308 4004.725)"/><rect class="e" width="85.798" height="38.702" rx="19.351" transform="translate(4084.802 3940.843)"/><rect class="e" width="141.287" height="38.702" rx="19.351" transform="translate(4275.515 3940.843)"/><rect class="e" width="85.798" height="38.702" rx="19.351" transform="translate(4250.336 3883.023)"/><path class="e" d="M19.351,0H80.2a0,0,0,0,1,0,0V38.7a0,0,0,0,1,0,0H19.351A19.351,19.351,0,0,1,0,19.351v0A19.351,19.351,0,0,1,19.351,0Z" transform="translate(4368.376 3883.023)"/><rect class="e" width="61.551" height="38.702" rx="19.351" transform="translate(4386.026 4004.725)"/><rect class="e" width="39.635" height="38.702" rx="19.351" transform="translate(4203.239 3940.843)"/><rect class="e" width="39.635" height="38.702" rx="19.351" transform="translate(4320.745 4004.725)"/></g></g><g transform="translate(-612.802 -1811)"><rect class="c" width="364" height="191" transform="translate(613 2001)"/><g class="d" transform="translate(-3472 -1882)"><rect class="a" width="363" height="191" transform="translate(4085 3883)"/><path class="e" d="M0,0H114.941a19.351,19.351,0,0,1,19.351,19.351v0A19.351,19.351,0,0,1,114.941,38.7H0a0,0,0,0,1,0,0V0A0,0,0,0,1,0,0Z" transform="translate(4084.802 3883.023)"/><rect class="e" width="168.332" height="38.702" rx="19.351" transform="translate(4119.308 4004.725)"/><rect class="e" width="85.798" height="38.702" rx="19.351" transform="translate(4084.802 3940.843)"/><rect class="e" width="141.287" height="38.702" rx="19.351" transform="translate(4275.515 3940.843)"/><rect class="e" width="85.798" height="38.702" rx="19.351" transform="translate(4250.336 3883.023)"/><path class="e" d="M19.351,0H80.2a0,0,0,0,1,0,0V38.7a0,0,0,0,1,0,0H19.351A19.351,19.351,0,0,1,0,19.351v0A19.351,19.351,0,0,1,19.351,0Z" transform="translate(4368.376 3883.023)"/><rect class="e" width="61.551" height="38.702" rx="19.351" transform="translate(4386.026 4004.725)"/><rect class="e" width="39.635" height="38.702" rx="19.351" transform="translate(4203.239 3940.843)"/><rect class="e" width="39.635" height="38.702" rx="19.351" transform="translate(4320.745 4004.725)"/></g></g><g transform="translate(-249.802 -1811)"><rect class="c" width="364" height="191" transform="translate(613 2001)"/><g class="d" transform="translate(-3472 -1882)"><rect class="a" width="363" height="191" transform="translate(4085 3883)"/><path class="e" d="M0,0H114.941a19.351,19.351,0,0,1,19.351,19.351v0A19.351,19.351,0,0,1,114.941,38.7H0a0,0,0,0,1,0,0V0A0,0,0,0,1,0,0Z" transform="translate(4084.802 3883.023)"/><rect class="e" width="168.332" height="38.702" rx="19.351" transform="translate(4119.308 4004.725)"/><rect class="e" width="85.798" height="38.702" rx="19.351" transform="translate(4084.802 3940.843)"/><rect class="e" width="141.287" height="38.702" rx="19.351" transform="translate(4275.515 3940.843)"/><rect class="e" width="85.798" height="38.702" rx="19.351" transform="translate(4250.336 3883.023)"/><path class="e" d="M19.351,0H80.2a0,0,0,0,1,0,0V38.7a0,0,0,0,1,0,0H19.351A19.351,19.351,0,0,1,0,19.351v0A19.351,19.351,0,0,1,19.351,0Z" transform="translate(4368.376 3883.023)"/><rect class="e" width="61.551" height="38.702" rx="19.351" transform="translate(4386.026 4004.725)"/><rect class="e" width="39.635" height="38.702" rx="19.351" transform="translate(4203.239 3940.843)"/><rect class="e" width="39.635" height="38.702" rx="19.351" transform="translate(4320.745 4004.725)"/></g></g><g transform="translate(-612.802 -1621)"><rect class="c" width="364" height="191" transform="translate(613 2001)"/><g class="d" transform="translate(-3472 -1882)"><rect class="a" width="363" height="191" transform="translate(4085 3883)"/><path class="e" d="M0,0H114.941a19.351,19.351,0,0,1,19.351,19.351v0A19.351,19.351,0,0,1,114.941,38.7H0a0,0,0,0,1,0,0V0A0,0,0,0,1,0,0Z" transform="translate(4084.802 3883.023)"/><rect class="e" width="168.332" height="38.702" rx="19.351" transform="translate(4119.308 4004.725)"/><rect class="e" width="85.798" height="38.702" rx="19.351" transform="translate(4084.802 3940.843)"/><rect class="e" width="141.287" height="38.702" rx="19.351" transform="translate(4275.515 3940.843)"/><rect class="e" width="85.798" height="38.702" rx="19.351" transform="translate(4250.336 3883.023)"/><path class="e" d="M19.351,0H80.2a0,0,0,0,1,0,0V38.7a0,0,0,0,1,0,0H19.351A19.351,19.351,0,0,1,0,19.351v0A19.351,19.351,0,0,1,19.351,0Z" transform="translate(4368.376 3883.023)"/><rect class="e" width="61.551" height="38.702" rx="19.351" transform="translate(4386.026 4004.725)"/><rect class="e" width="39.635" height="38.702" rx="19.351" transform="translate(4203.239 3940.843)"/><rect class="e" width="39.635" height="38.702" rx="19.351" transform="translate(4320.745 4004.725)"/></g></g><g transform="translate(-249.802 -1621)"><rect class="c" width="364" height="191" transform="translate(613 2001)"/><g class="d" transform="translate(-3472 -1882)"><rect class="a" width="363" height="191" transform="translate(4085 3883)"/><path class="e" d="M0,0H114.941a19.351,19.351,0,0,1,19.351,19.351v0A19.351,19.351,0,0,1,114.941,38.7H0a0,0,0,0,1,0,0V0A0,0,0,0,1,0,0Z" transform="translate(4084.802 3883.023)"/><rect class="e" width="168.332" height="38.702" rx="19.351" transform="translate(4119.308 4004.725)"/><rect class="e" width="85.798" height="38.702" rx="19.351" transform="translate(4084.802 3940.843)"/><rect class="e" width="141.287" height="38.702" rx="19.351" transform="translate(4275.515 3940.843)"/><rect class="e" width="85.798" height="38.702" rx="19.351" transform="translate(4250.336 3883.023)"/><path class="e" d="M19.351,0H80.2a0,0,0,0,1,0,0V38.7a0,0,0,0,1,0,0H19.351A19.351,19.351,0,0,1,0,19.351v0A19.351,19.351,0,0,1,19.351,0Z" transform="translate(4368.376 3883.023)"/><rect class="e" width="61.551" height="38.702" rx="19.351" transform="translate(4386.026 4004.725)"/><rect class="e" width="39.635" height="38.702" rx="19.351" transform="translate(4203.239 3940.843)"/><rect class="e" width="39.635" height="38.702" rx="19.351" transform="translate(4320.745 4004.725)"/></g></g><g transform="translate(-612.802 -1431)"><rect class="c" width="364" height="191" transform="translate(613 2001)"/><g class="d" transform="translate(-3472 -1882)"><rect class="a" width="363" height="191" transform="translate(4085 3883)"/><path class="e" d="M0,0H114.941a19.351,19.351,0,0,1,19.351,19.351v0A19.351,19.351,0,0,1,114.941,38.7H0a0,0,0,0,1,0,0V0A0,0,0,0,1,0,0Z" transform="translate(4084.802 3883.023)"/><rect class="e" width="168.332" height="38.702" rx="19.351" transform="translate(4119.308 4004.725)"/><rect class="e" width="85.798" height="38.702" rx="19.351" transform="translate(4084.802 3940.843)"/><rect class="e" width="141.287" height="38.702" rx="19.351" transform="translate(4275.515 3940.843)"/><rect class="e" width="85.798" height="38.702" rx="19.351" transform="translate(4250.336 3883.023)"/><path class="e" d="M19.351,0H80.2a0,0,0,0,1,0,0V38.7a0,0,0,0,1,0,0H19.351A19.351,19.351,0,0,1,0,19.351v0A19.351,19.351,0,0,1,19.351,0Z" transform="translate(4368.376 3883.023)"/><rect class="e" width="61.551" height="38.702" rx="19.351" transform="translate(4386.026 4004.725)"/><rect class="e" width="39.635" height="38.702" rx="19.351" transform="translate(4203.239 3940.843)"/><rect class="e" width="39.635" height="38.702" rx="19.351" transform="translate(4320.745 4004.725)"/></g></g><g transform="translate(-249.802 -1431)"><rect class="c" width="364" height="191" transform="translate(613 2001)"/><g class="d" transform="translate(-3472 -1882)"><rect class="a" width="363" height="191" transform="translate(4085 3883)"/><path class="e" d="M0,0H114.941a19.351,19.351,0,0,1,19.351,19.351v0A19.351,19.351,0,0,1,114.941,38.7H0a0,0,0,0,1,0,0V0A0,0,0,0,1,0,0Z" transform="translate(4084.802 3883.023)"/><rect class="e" width="168.332" height="38.702" rx="19.351" transform="translate(4119.308 4004.725)"/><rect class="e" width="85.798" height="38.702" rx="19.351" transform="translate(4084.802 3940.843)"/><rect class="e" width="141.287" height="38.702" rx="19.351" transform="translate(4275.515 3940.843)"/><rect class="e" width="85.798" height="38.702" rx="19.351" transform="translate(4250.336 3883.023)"/><path class="e" d="M19.351,0H80.2a0,0,0,0,1,0,0V38.7a0,0,0,0,1,0,0H19.351A19.351,19.351,0,0,1,0,19.351v0A19.351,19.351,0,0,1,19.351,0Z" transform="translate(4368.376 3883.023)"/><rect class="e" width="61.551" height="38.702" rx="19.351" transform="translate(4386.026 4004.725)"/><rect class="e" width="39.635" height="38.702" rx="19.351" transform="translate(4203.239 3940.843)"/><rect class="e" width="39.635" height="38.702" rx="19.351" transform="translate(4320.745 4004.725)"/></g></g><g transform="translate(-612.802 -1241)"><rect class="c" width="364" height="191" transform="translate(613 2001)"/><g class="d" transform="translate(-3472 -1882)"><rect class="a" width="363" height="191" transform="translate(4085 3883)"/><path class="e" d="M0,0H114.941a19.351,19.351,0,0,1,19.351,19.351v0A19.351,19.351,0,0,1,114.941,38.7H0a0,0,0,0,1,0,0V0A0,0,0,0,1,0,0Z" transform="translate(4084.802 3883.023)"/><rect class="e" width="168.332" height="38.702" rx="19.351" transform="translate(4119.308 4004.725)"/><rect class="e" width="85.798" height="38.702" rx="19.351" transform="translate(4084.802 3940.843)"/><rect class="e" width="141.287" height="38.702" rx="19.351" transform="translate(4275.515 3940.843)"/><rect class="e" width="85.798" height="38.702" rx="19.351" transform="translate(4250.336 3883.023)"/><path class="e" d="M19.351,0H80.2a0,0,0,0,1,0,0V38.7a0,0,0,0,1,0,0H19.351A19.351,19.351,0,0,1,0,19.351v0A19.351,19.351,0,0,1,19.351,0Z" transform="translate(4368.376 3883.023)"/><rect class="e" width="61.551" height="38.702" rx="19.351" transform="translate(4386.026 4004.725)"/><rect class="e" width="39.635" height="38.702" rx="19.351" transform="translate(4203.239 3940.843)"/><rect class="e" width="39.635" height="38.702" rx="19.351" transform="translate(4320.745 4004.725)"/></g></g><g transform="translate(-249.802 -1241)"><rect class="c" width="364" height="191" transform="translate(613 2001)"/><g class="d" transform="translate(-3472 -1882)"><rect class="a" width="363" height="191" transform="translate(4085 3883)"/><path class="e" d="M0,0H114.941a19.351,19.351,0,0,1,19.351,19.351v0A19.351,19.351,0,0,1,114.941,38.7H0a0,0,0,0,1,0,0V0A0,0,0,0,1,0,0Z" transform="translate(4084.802 3883.023)"/><rect class="e" width="168.332" height="38.702" rx="19.351" transform="translate(4119.308 4004.725)"/><rect class="e" width="85.798" height="38.702" rx="19.351" transform="translate(4084.802 3940.843)"/><rect class="e" width="141.287" height="38.702" rx="19.351" transform="translate(4275.515 3940.843)"/><rect class="e" width="85.798" height="38.702" rx="19.351" transform="translate(4250.336 3883.023)"/><path class="e" d="M19.351,0H80.2a0,0,0,0,1,0,0V38.7a0,0,0,0,1,0,0H19.351A19.351,19.351,0,0,1,0,19.351v0A19.351,19.351,0,0,1,19.351,0Z" transform="translate(4368.376 3883.023)"/><rect class="e" width="61.551" height="38.702" rx="19.351" transform="translate(4386.026 4004.725)"/><rect class="e" width="39.635" height="38.702" rx="19.351" transform="translate(4203.239 3940.843)"/><rect class="e" width="39.635" height="38.702" rx="19.351" transform="translate(4320.745 4004.725)"/></g></g></g></svg>