<svg xmlns="http://www.w3.org/2000/svg" width="364.198" height="191" viewBox="0 0 364.198 191"><defs><style>.a{fill:#212356;}.b{opacity:0.879;}.c{fill:none;}.d{fill:#25295c;}</style></defs><g transform="translate(-612.802 -2001)"><rect class="a" width="364" height="191" transform="translate(613 2001)"/><g class="b" transform="translate(-3472 -1882)"><rect class="c" width="363" height="191" transform="translate(4085 3883)"/><path class="d" d="M0,0H114.941a19.351,19.351,0,0,1,19.351,19.351v0A19.351,19.351,0,0,1,114.941,38.7H0a0,0,0,0,1,0,0V0A0,0,0,0,1,0,0Z" transform="translate(4084.802 3883.023)"/><rect class="d" width="168.332" height="38.702" rx="19.351" transform="translate(4119.308 4004.725)"/><rect class="d" width="85.798" height="38.702" rx="19.351" transform="translate(4084.802 3940.843)"/><rect class="d" width="141.287" height="38.702" rx="19.351" transform="translate(4275.515 3940.843)"/><rect class="d" width="85.798" height="38.702" rx="19.351" transform="translate(4250.336 3883.023)"/><path class="d" d="M19.351,0H80.2a0,0,0,0,1,0,0V38.7a0,0,0,0,1,0,0H19.351A19.351,19.351,0,0,1,0,19.351v0A19.351,19.351,0,0,1,19.351,0Z" transform="translate(4368.376 3883.023)"/><rect class="d" width="61.551" height="38.702" rx="19.351" transform="translate(4386.026 4004.725)"/><rect class="d" width="39.635" height="38.702" rx="19.351" transform="translate(4203.239 3940.843)"/><rect class="d" width="39.635" height="38.702" rx="19.351" transform="translate(4320.745 4004.725)"/></g></g></svg>