<svg xmlns="http://www.w3.org/2000/svg" width="30" height="29" viewBox="0 0 30 29"><defs><style>.a{fill:#ffde95;}.b{fill:#ffb833;}</style></defs><g transform="translate(-369 -1191)"><rect class="a" width="30" height="29" rx="4" transform="translate(369 1191)"/><path class="b" d="M11.033,13.576,7.614,11.12a.6.6,0,0,0-.7,0L3.5,13.576a.589.589,0,0,1-.347.115.582.582,0,0,1-.564-.756l1.313-4A.57.57,0,0,0,3.685,8.3L.242,5.822A.576.576,0,0,1,.591,4.779H4.834a.589.589,0,0,0,.562-.4L6.7.4A.594.594,0,0,1,7.826.4L9.133,4.379a.589.589,0,0,0,.562.4h4.243a.576.576,0,0,1,.349,1.043L10.844,8.3a.57.57,0,0,0-.213.642l1.313,4a.582.582,0,0,1-.564.756A.589.589,0,0,1,11.033,13.576Z" transform="translate(376.735 1198.029)"/></g></svg>