<svg xmlns="http://www.w3.org/2000/svg" width="39.962" height="41.606" viewBox="0 0 39.962 41.606"><defs><style>.a{fill:#786FB3;}</style></defs><g transform="translate(11351.854 -3156.67)"><path class="a" d="M-11282.044,3199a3.585,3.585,0,0,0-3.71-2.054,1.552,1.552,0,0,1-1.513-.643,10.253,10.253,0,0,0-4.321-3.078c-.323-.128-.642-.285-.977-.45-.308-.151-.625-.307-.955-.446a3.816,3.816,0,0,0-1.413-.354c-2.418-.022-4.993-.026-8.352-.013a2.678,2.678,0,0,0-2.516,1.61l-.274.6c-.8,1.752-1.633,3.563-2.39,5.377a2.931,2.931,0,0,0-.037,2.145,3.824,3.824,0,0,0,3.547,2.3,3.359,3.359,0,0,0,3.359-2.034q.223-.478.438-.959c.235-.519.478-1.055.731-1.567a.631.631,0,0,1,.055-.091c.265-.017.534-.021.82-.02q-.322.7-.647,1.4c-.475,1.026-.965,2.087-1.436,3.14a4.15,4.15,0,0,0,1.717,5.642l-3.486-1.647-.346.749c-.19.413-.389.817-.585,1.216a25.418,25.418,0,0,0-1.236,2.806c-.432,1.242-.866,1.55-2.026,1.432a3.084,3.084,0,0,0-2.359.767,3.842,3.842,0,0,0-1.276,2.728,3.6,3.6,0,0,0,3.33,3.732c.782.062,1.565.059,2.323.056.342,0,.684,0,1.025,0h.081a4.322,4.322,0,0,0,4.168-2.744c.592-1.322,1.212-2.661,1.81-3.957q.485-1.048.967-2.1c.091-.2.167-.391.248-.6.037-.093.074-.189.115-.29l.262-.639c1.413.7,2.923,1.431,4.473,2.16a.847.847,0,0,1,.142.08.8.8,0,0,1,.01.163c-.022,2.479-.015,5.029-.006,7.278a3.628,3.628,0,0,0,1.744,3.273,3.8,3.8,0,0,0,1.971.569,3.422,3.422,0,0,0,1.665-.429,4.013,4.013,0,0,0,1.97-3.553c.035-2.818.022-5.679.009-8.446l0-.9a3.966,3.966,0,0,0-2.406-3.837c-.483-.221-.975-.465-1.449-.7l-.086-.042c-.89-.441-1.777-.884-2.685-1.336l-.4-.2.977-2.133c.03.022.06.043.091.064.127.087.255.186.383.284a3.415,3.415,0,0,0,1.65.837,16.673,16.673,0,0,0,4.3.027,3.314,3.314,0,0,0,2.463-1.788A3.735,3.735,0,0,0-11282.044,3199Zm-5.9,2.22a2.352,2.352,0,0,1-1.027-.52,8.206,8.206,0,0,1-.912-.889c-.155-.168-.31-.335-.47-.5a1.534,1.534,0,0,0-1.378-.545,1.506,1.506,0,0,0-1.088.975q-.311.685-.618,1.371c-.584,1.3-1.187,2.639-1.8,3.942a1.533,1.533,0,0,0,.848,2.243c.688.328,1.373.665,2.056,1,1.076.531,2.188,1.079,3.307,1.583a1.509,1.509,0,0,1,1.057,1.661c-.055,2.417-.041,4.87-.026,7.242l.009,1.862c0,.671-.22.758-.4.827a.583.583,0,0,1-.548-.029.851.851,0,0,1-.309-.725l0-.635c-.019-2.276-.036-4.628.019-6.935a2.453,2.453,0,0,0-1.605-2.584c-1.975-.9-3.956-1.881-5.872-2.834l-1.3-.645c-1.164-.576-1.325-1.033-.783-2.22q.56-1.239,1.129-2.475c.585-1.275,1.17-2.551,1.744-3.831a1.7,1.7,0,0,0,.1-1.628,1.736,1.736,0,0,0-1.563-.587h-.189c-.334,0-.668,0-1,.006-.791.007-1.611.014-2.4-.022a1.876,1.876,0,0,0-1.967,1.283c-.217.517-.456,1.041-.687,1.548-.208.461-.418.922-.616,1.387-.063.148-.214.425-.334.4a3.372,3.372,0,0,1-1.022-.46c.725-1.65,1.567-3.554,2.458-5.395a.631.631,0,0,1,.229-.092c.924-.039,1.874-.033,2.795-.027.35,0,.7,0,1.05,0h0c.065,0,.137,0,.206.005a3.447,3.447,0,0,0,.654-.019,10,10,0,0,1,7,1.826,11.038,11.038,0,0,1,2.177,2.025,3.134,3.134,0,0,0,2.873,1.143,4.146,4.146,0,0,1,.82.005.657.657,0,0,1,.668.676.609.609,0,0,1-.67.593l-.515.015A13.519,13.519,0,0,1-11287.945,3201.218Zm-15.329,16.521a.987.987,0,0,1-1.023.552l-.847,0c-.747,0-1.521.006-2.276-.006a.9.9,0,0,1-.642-.226.591.591,0,0,1-.153-.44c.013-.49.418-.619.768-.636,2.275.475,3.8-.533,4.545-3a12.082,12.082,0,0,1,.83-1.891l.122-.243,1.157.547-.467,1.015C-11301.944,3214.907-11302.59,3216.315-11303.274,3217.739Z" transform="translate(-30.232 -26.26)"/><path class="a" d="M-11338.08,3229.933c1.035-2.206.307-3.618-.538-4.435a3.506,3.506,0,0,0-4.342-.5l-2.042-1.942-6.852,6.94,8.752,8.776,7.183-7.051Zm-6.913-2.509,4.489,4.562-2.525,2.542-4.572-4.527Z" transform="translate(0 -49.411)"/><path class="a" d="M-11239.758,3167.236h.02a5.267,5.267,0,0,0,3.758-1.535,5.276,5.276,0,0,0,1.537-3.776,5.281,5.281,0,0,0-5.275-5.255h-.01a5.237,5.237,0,0,0-3.73,1.546,5.339,5.339,0,0,0-1.547,3.815A5.259,5.259,0,0,0-11239.758,3167.236Zm2.264-5.253a2.213,2.213,0,0,1-2.258,2.194,2.2,2.2,0,0,1-1.566-.672,2.2,2.2,0,0,1-.615-1.573,2.2,2.2,0,0,1,2.205-2.184h.041a2.242,2.242,0,0,1,1.592.69A2.153,2.153,0,0,1-11237.494,3161.983Z" transform="translate(-79.525)"/></g></svg>