<svg xmlns="http://www.w3.org/2000/svg" width="23.833" height="23.809" viewBox="0 0 23.833 23.809"><defs><style>.a{fill:#f05765;}</style></defs><path class="a" d="M-2372.649-4526.852a12.008,12.008,0,0,1-2.125,6.86.844.844,0,0,1-1.2.31.839.839,0,0,1-.168-1.223,10.211,10.211,0,0,0,1.822-5.52,9.991,9.991,0,0,0-3.253-7.841,9.876,9.876,0,0,0-7.516-2.76,10.252,10.252,0,0,0-9.495,8.078,10.258,10.258,0,0,0,8.128,12.256,9.989,9.989,0,0,0,6.96-1.187c.124-.071.244-.147.371-.214a.845.845,0,0,1,1.156.27.812.812,0,0,1-.332,1.158,14.673,14.673,0,0,1-1.419.763,11.917,11.917,0,0,1-16.574-8.732,11.867,11.867,0,0,1,9.235-13.761,11.821,11.821,0,0,1,13.144,6.328A11.587,11.587,0,0,1-2372.649-4526.852Z" transform="translate(2396.482 4538.663)"/><path class="a" d="M-2357.325-4489.185a7.824,7.824,0,0,1-7.619-6.2,7.8,7.8,0,0,1,5.1-8.953.842.842,0,0,1,1.1.441.784.784,0,0,1-.527,1.074,6.2,6.2,0,0,0-2.471,1.582,5.842,5.842,0,0,0-1.54,5.531,5.842,5.842,0,0,0,4.908,4.716,6.007,6.007,0,0,0,6.795-3.994,5.969,5.969,0,0,0-1.3-6.212,5.655,5.655,0,0,0-2.338-1.548c-.072-.026-.146-.048-.217-.077a.807.807,0,0,1-.519-1,.805.805,0,0,1,1.057-.523,6.921,6.921,0,0,1,2.365,1.267,7.64,7.64,0,0,1,2.555,8.548,7.5,7.5,0,0,1-5.985,5.188C-2356.405-4489.256-2356.869-4489.237-2357.325-4489.185Z" transform="translate(2369.251 4508.914)"/><path class="a" d="M-2332.546-4462.167l1.953-2.213c.407-.461.809-.927,1.221-1.383a.831.831,0,0,1,1.22-.151.848.848,0,0,1,.009,1.259q-1.86,2.095-3.734,4.177a.8.8,0,0,1-1.245.054q-1.1-1.019-2.182-2.059a.823.823,0,0,1-.079-1.226.823.823,0,0,1,1.228.046C-2333.623-4463.173-2333.095-4462.678-2332.546-4462.167Z" transform="translate(2343.646 4475.684)"/><path class="a" d="M-2252.987-4393.649a2.136,2.136,0,0,1,.409.217,3.5,3.5,0,0,1,.446.481.483.483,0,0,1-.03.684.487.487,0,0,1-.708.021,2.381,2.381,0,0,1-.491-.568.669.669,0,0,1-.014-.518C-2253.319-4393.465-2253.128-4393.541-2252.987-4393.649Z" transform="translate(2272.286 4412.771)"/><path class="a" d="M-2308.911-4506.3a2.229,2.229,0,0,1,0,.361.527.527,0,0,1-.565.44.463.463,0,0,1-.457-.5,4.322,4.322,0,0,1,.02-.656.481.481,0,0,1,.526-.469.519.519,0,0,1,.486.524c.007.1,0,.2,0,.3Z" transform="translate(2321.352 4511.278)"/></svg>