<?xml version="1.0" encoding="utf-8"?>
<!-- Generator: Adobe Illustrator 22.1.0, SVG Export Plug-In . SVG Version: 6.00 Build 0)  -->
<svg version="1.1" id="Layer_1" xmlns="http://www.w3.org/2000/svg" xmlns:xlink="http://www.w3.org/1999/xlink" x="0px" y="0px"
	 viewBox="0 0 50 50" style="enable-background:new 0 0 50 50;" xml:space="preserve">
<style type="text/css">
	.st0{fill:#F89767;}
</style>
<g id="surface1">
	<path class="st0" d="M14,2c-2.8,0-5,2.3-5,5s2.3,5,5,5s5-2.3,5-5S16.8,2,14,2z M35,2c-2.8,0-5,2.3-5,5s2.3,5,5,5s5-2.3,5-5
		S37.8,2,35,2z M14,4c1.7,0,3,1.3,3,3s-1.3,3-3,3s-3-1.3-3-3S12.3,4,14,4z M35,4c1.7,0,3,1.3,3,3s-1.3,3-3,3s-3-1.3-3-3S33.3,4,35,4
		z M9.5,13c-3,0-5.5,2.5-5.5,5.5v12.3c0,0.1,0,0.1,0,0.2c0,0.1,0,0.2,0,0.3C4.2,32.8,5.5,34,7,34c0.4,0,0.7-0.1,1-0.2v11.5
		c0,1.5,1.2,2.7,2.7,2.7h1.7c0.6,0,1.2-0.3,1.7-0.7c0.5,0.4,1,0.7,1.7,0.7h1.7c1.5,0,2.7-1.2,2.7-2.7v-6.5c0.3,0.1,0.6,0.2,1,0.2
		v6.5c0,1.4,1.1,2.5,2.5,2.5h3c1.4,0,2.5-1.1,2.5-2.5V39c0.4,0,0.7-0.1,1-0.2V45c0,1.6,1.4,3,3,3c0.8,0,1.5-0.3,2-0.8
		c0.5,0.5,1.2,0.8,2,0.8c1.6,0,3-1.4,3-3v-8h2.6c0.7,0,1.3-0.3,1.6-0.9c0,0,0,0,0,0c0.3-0.5,0.4-1.2,0.3-1.8c0,0,0,0,0,0L44.1,33
		c1,0,1.9-0.5,2.4-1.3s0.6-1.8,0.3-2.7c-0.9-2.8-4-12.3-4-12.3c-0.2-0.6-0.5-1.4-1.3-2.2S39.5,13,38,13h-1.9c0,0,0,0-0.1,0h-4
		c-1.5,0-2.7,0.7-3.4,1.5c-0.4,0.4-0.4,1,0,1.4s1,0.4,1.4,0c0.5-0.5,1-0.8,1.9-0.8h4c0,0,0.1,0,0.1,0H38c0.9,0,1.5,0.4,1.9,0.8
		s0.8,1.1,0.9,1.5c0,0,3.1,9.5,4,12.3c0.2,0.5,0.1,0.9,0,1.1S44.5,31,44.1,31c-0.4,0-0.8-0.3-0.9-0.6c0,0,0,0,0,0
		c0-0.1,0-0.2-0.1-0.3l-2.8-8.4c-0.1-0.5-0.6-0.8-1.1-0.7c-0.3,0-0.6,0.2-0.7,0.5c-0.2,0.3-0.2,0.6-0.1,0.8l2.8,8.4
		c0,0.1,0.1,0.2,0.1,0.3l1.3,3.9v0c0,0,0,0,0,0.1h-7.5c0,0,0,0-0.1,0h-3v-6c0-2.2-1.8-4-4-4h-6c-2.2,0-4,1.8-4,4v1.8
		c0,0,0,0.1,0,0.1v14.4c0,0.4-0.3,0.7-0.7,0.7h-1.7c-0.4,0-0.7-0.3-0.7-0.7V32.7c0-0.3-0.1-0.6-0.3-0.8c-0.2-0.2-0.5-0.3-0.8-0.2
		c-0.5,0.1-0.9,0.5-0.9,1v12.7c0,0.4-0.3,0.7-0.7,0.7h-1.7c-0.4,0-0.7-0.3-0.7-0.7V21c0-0.3-0.1-0.6-0.3-0.8C9.5,20,9.2,19.9,8.9,20
		c0,0-0.1,0-0.1,0C8.3,20.1,8,20.5,8,21v9.8c0,0,0,0.1,0,0.1V31c0,0.6-0.4,1-1,1c-0.5,0-1-0.4-1-0.9c0,0,0,0,0-0.1
		c0-0.1,0-0.1,0-0.2V18.5C6,16.6,7.6,15,9.5,15h9c0.8,0,1.4,0.2,2,0.6c0.3,0.2,0.7,0.3,1,0.2c0.3-0.1,0.6-0.5,0.6-0.9
		c0-0.4-0.2-0.7-0.5-0.9c-0.9-0.6-2-1-3.2-1H9.5z M25,16c-2.2,0-4,1.8-4,4s1.8,4,4,4s4-1.8,4-4S27.2,16,25,16z M25,18
		c1.1,0,2,0.9,2,2s-0.9,2-2,2s-2-0.9-2-2S23.9,18,25,18z M22,27h6c1.1,0,2,0.9,2,2v6.8c0,0,0,0.1,0,0.1V36c0,0.6-0.4,1-1,1h-1
		c-0.6,0-1,0.4-1,1v7.5c0,0.3-0.2,0.5-0.5,0.5h-3c-0.3,0-0.5-0.2-0.5-0.5V38c0-0.6-0.4-1-1-1h-1c-0.6,0-1-0.4-1-1v-7
		C20,27.9,20.9,27,22,27z M32,37h2v8c0,0.6-0.4,1-1,1s-1-0.4-1-1V37z M36,37h2v8c0,0.6-0.4,1-1,1s-1-0.4-1-1V37z"/>
</g>
</svg>
