<svg xmlns="http://www.w3.org/2000/svg" width="37.107" height="37.1" viewBox="0 0 37.107 37.1"><defs><style>.a{fill:#e69e56;}</style></defs><g transform="translate(10686.898 -3265.211)"><g transform="translate(-10686.898 3265.211)"><path class="a" d="M-10668.362,3265.211a18.608,18.608,0,0,1,18.571,18.226,18.551,18.551,0,0,1-18.5,18.873,18.572,18.572,0,0,1-18.609-18.255A18.572,18.572,0,0,1-10668.362,3265.211Zm.043,33.285a14.775,14.775,0,0,0,14.7-14.941,14.76,14.76,0,0,0-15.045-14.5,14.758,14.758,0,0,0-14.41,14.962A14.8,14.8,0,0,0-10668.319,3298.5Z" transform="translate(10686.898 -3265.211)"/><path class="a" d="M-10624.869,3320.028c-1.48,0-1.51,0-1.492-1.541.01-.765-.2-1.148-1.035-1.255a12.343,12.343,0,0,1-2.4-.672,1.121,1.121,0,0,1-.791-1.575c.225-.654.289-1.519.746-1.88.3-.232,1.166.326,1.795.442a18.934,18.934,0,0,0,3.039.41,1.923,1.923,0,0,0,2.037-1.406,1.926,1.926,0,0,0-1.326-2.087c-.93-.44-1.91-.77-2.838-1.21a5.289,5.289,0,0,1-3.158-3.149,4.664,4.664,0,0,1,2.826-5.8,1.742,1.742,0,0,0,1.369-2.067c-.1-1.022.037-1.085,1.063-1.093.139,0,.279,0,.418,0,1.25,0,1.361.064,1.3,1.325-.041.855.283,1.2,1.1,1.3a9.145,9.145,0,0,1,1.609.427,1.124,1.124,0,0,1,.588.294,1.215,1.215,0,0,1,.273.845,19.179,19.179,0,0,1-.937,2.334c-.016.034-.441-.144-.684-.185-1.17-.2-2.336-.457-3.514-.548a1.45,1.45,0,0,0-1.594,1.092c-.23.83.256,1.332.922,1.667.967.488,1.951.944,2.941,1.388a5.809,5.809,0,0,1,3.418,3.343,5.007,5.007,0,0,1-3.074,6.372,1.569,1.569,0,0,0-1.2,1.792C-10623.387,3320.024-10623.439,3320.027-10624.869,3320.028Z" transform="translate(10643.334 -3289.958)"/></g></g></svg>