<svg xmlns="http://www.w3.org/2000/svg" width="41.776" height="37.299" viewBox="0 0 41.776 37.299"><defs><style>.a{fill:#48b2c9;}</style></defs><g transform="translate(10891.42 -3265.211)"><path class="a" d="M-10852.6,3268.668a11.734,11.734,0,0,0-8.22-3.456,11.727,11.727,0,0,0-8.29,3.291c-.311.3-.592.616-.865.932a13.846,13.846,0,0,0-1.161-1.215,11.853,11.853,0,0,0-14.639-.877,11.937,11.937,0,0,0-4.992,9.437.222.222,0,0,0,.063.164.22.22,0,0,0,.162.069h3.417a.226.226,0,0,0,.226-.22,7.76,7.76,0,0,1,1.467-4.378,7.87,7.87,0,0,1,5.694-3.26,8.382,8.382,0,0,1,6.533,2.454c.571.551,1.125,1.135,1.661,1.7.243.256.482.508.714.75l.527.542a.227.227,0,0,0,.313.012l.564-.5c.531-.466,1.024-.936,1.5-1.39a18.465,18.465,0,0,1,2.877-2.4,7.824,7.824,0,0,1,10.216,1.672,7.726,7.726,0,0,1-.354,10.405c-3.532,3.67-7.232,7.322-10.812,10.854l-.046.043c-1.295,1.279-2.627,2.594-3.953,3.909-.039-.039-.08-.078-.119-.118-.882-.883-1.769-1.764-2.664-2.655-2.331-2.315-4.741-4.709-7.044-7.118a3.854,3.854,0,0,0-.714-.593c-.391-.374-.779-.748-1.16-1.12a.227.227,0,0,0-.158-.064h-4.526a.226.226,0,0,0-.21.14.225.225,0,0,0,.052.247c.613.612,1.34,1.307,2.148,2.059l14.523,14.463a.224.224,0,0,0,.158.066h0a.226.226,0,0,0,.162-.072l.559-.595c.118-.126.242-.262.39-.419.291-.319.625-.68.96-1.016q2.414-2.417,4.84-4.821c3.437-3.414,6.99-6.944,10.425-10.486A11.76,11.76,0,0,0-10852.6,3268.668Z" transform="translate(-0.506)"/><path class="a" d="M-10866.7,3319.343c.854-.018,1.682-.11,2.557-.207l.035,0,.5-.054.028.1a18.031,18.031,0,0,0,.746,2.246,2.775,2.775,0,0,0,1.767,1.672c.873.164,1.783-.864,2.077-1.45.523-1.052,1-2.136,1.5-3.278l.128.437c.7,2.353,1.356,4.576,2.07,6.782.23.712,1,1.732,1.859,1.8.029,0,.056,0,.087,0a2.69,2.69,0,0,0,1.975-1.544c.938-1.9,1.8-3.859,2.632-5.76l.189-.433c.09-.208,1.024-.341,1.555-.31a1.806,1.806,0,0,0,2-1.714,1.809,1.809,0,0,0-2.012-1.714h0c-.4.009-.786.017-1.161,0a3.293,3.293,0,0,0-3.476,2.243c-.425,1.02-.889,2.037-1.382,3.113l-.151-.506c-.631-2.126-1.227-4.135-1.854-6.149-.036-.118-.07-.258-.106-.412-.163-.707-.472-2.023-2-2.088-1.473-.065-1.9,1.119-2.164,1.826-.056.158-.11.308-.169.431-.387.825-.759,1.661-1.147,2.538a9.326,9.326,0,0,0-.336-.9,2.863,2.863,0,0,0-1.618-1.563,2.331,2.331,0,0,0-2.082,1,3.2,3.2,0,0,1-2.038.491,1.787,1.787,0,0,0-1.976,1.7,1.787,1.787,0,0,0,1.976,1.7Z" transform="translate(-17.596 -36.287)"/><circle class="a" cx="1.692" cy="1.692" r="1.692" transform="translate(-10861.007 3279.581)"/><circle class="a" cx="1.692" cy="1.692" r="1.692" transform="translate(-10891.42 3279.581)"/></g></svg>