<svg xmlns="http://www.w3.org/2000/svg" width="36.602" height="37.282" viewBox="0 0 36.602 37.282"><g transform="translate(-1.5 -0.5)"><path d="M17.873,1C12.411,1,8.384,2.884,5.779,5.836A16.509,16.509,0,0,0,2,16.873a15.791,15.791,0,0,0,2.778,8.97,13.882,13.882,0,0,1,2.513,7.81v3.629H8.8V33.653a15.376,15.376,0,0,0-2.778-8.666,14.283,14.283,0,0,1-2.513-8.114A15.008,15.008,0,0,1,6.913,6.84c2.309-2.622,5.84-4.329,10.96-4.329,5.141,0,8.471,1.5,10.671,3.785a15.05,15.05,0,0,1,3.7,8.852l.018.154,3.626,6.248a.6.6,0,0,1-.236.859l-3.413,1.707v4.547a4.708,4.708,0,0,1-5.146,4.769l-.012,0-3.156-.2v4.057h1.512V34.837l1.518.1a6.253,6.253,0,0,0,6.8-6.271V25.049l2.634-1.317a2.157,2.157,0,0,0,.824-2.917l0-.006-3.514-6.053a16.387,16.387,0,0,0-4.054-9.51C27.127,2.642,23.315,1,17.873,1ZM20.9,6.291V7.88a3.731,3.731,0,0,0-1.323.555L18.446,7.307,17.377,8.376,18.505,9.5a3.731,3.731,0,0,0-.555,1.323H16.362v1.512H17.95a3.731,3.731,0,0,0,.555,1.323l-1.128,1.128,1.069,1.069,1.128-1.128a3.731,3.731,0,0,0,1.323.555v1.589h1.512V15.285a3.731,3.731,0,0,0,1.323-.555l1.128,1.128,1.069-1.069L24.8,13.661a3.731,3.731,0,0,0,.555-1.323h1.589V10.826H25.355A3.731,3.731,0,0,0,24.8,9.5l1.128-1.128L24.859,7.307,23.731,8.435a3.731,3.731,0,0,0-1.323-.555V6.291Zm.756,3.023a2.268,2.268,0,1,1-2.268,2.268A2.257,2.257,0,0,1,21.653,9.315Zm-9.826,3.023v1.589a3.7,3.7,0,0,0-1.32.561L9.376,13.354,8.307,14.423l1.134,1.134a3.725,3.725,0,0,0-.555,1.317H7.291v1.512H8.88a3.731,3.731,0,0,0,.555,1.323L8.307,20.836,9.376,21.9,10.5,20.777a3.731,3.731,0,0,0,1.323.555V22.92h1.512V21.332a3.731,3.731,0,0,0,1.323-.555L15.789,21.9l1.069-1.069L15.73,19.708a3.731,3.731,0,0,0,.555-1.323h1.589V16.873H16.279a3.726,3.726,0,0,0-.555-1.317l1.134-1.134-1.069-1.069-1.131,1.134a3.7,3.7,0,0,0-1.32-.561V12.338Zm.756,3.023a2.268,2.268,0,1,1-2.268,2.268A2.257,2.257,0,0,1,12.582,15.362Z" fill="#f16ea6" stroke="#f16ea6" stroke-width="1"/></g></svg>