<svg xmlns="http://www.w3.org/2000/svg" width="32.07" height="32.107" viewBox="0 0 32.07 32.107"><g transform="translate(-1.508 -1.5)"><path d="M27.6,2a.671.671,0,0,0-.491.225,2.153,2.153,0,0,0-.742.341,6.887,6.887,0,0,0-.885,1.1,27.055,27.055,0,0,1-2.166,2.956c-1.862,2.095-4.776,4.168-10.492,4.168a.744.744,0,0,0-.077,0H5.384a3.388,3.388,0,0,0-3.376,3.379v3.381A3.38,3.38,0,0,0,4.19,20.7a.638.638,0,0,0,.127.111,7.711,7.711,0,0,1,1.294,2.956c.481,1.743.972,4.155,1.535,7.093a2.909,2.909,0,0,0,.734,1.572,2.568,2.568,0,0,0,1.862.676H12A2.278,2.278,0,0,0,13.6,32.6a2,2,0,0,0,.571-1.522,3.941,3.941,0,0,0-1.492-2.789c.124.124-.048-.106-.129-.5a15.07,15.07,0,0,1-.217-1.672c-.111-1.279-.166-3.077-.18-5.188h.549a.77.77,0,0,0,.206,0h.024c5.74,0,8.627,2.224,10.479,4.485a29.874,29.874,0,0,1,2.15,3.188,7.055,7.055,0,0,0,.874,1.183,1.785,1.785,0,0,0,1.26.61h.05a1.045,1.045,0,0,0,.7-.306,1.75,1.75,0,0,0,.362-.592,8.6,8.6,0,0,0,.468-2.092,72.392,72.392,0,0,0,.423-7.83h.335a3,3,0,0,0,2.99-2.723.68.68,0,0,0,.053-.262,3.09,3.09,0,0,0-3.043-3.1H29.7a67.251,67.251,0,0,0-.507-8.522,8.372,8.372,0,0,0-.523-2.1,1.847,1.847,0,0,0-.38-.581A1.034,1.034,0,0,0,27.6,2Zm-.161,1.453a7.445,7.445,0,0,1,.42,1.728A80.416,80.416,0,0,1,28.376,16.2a92.655,92.655,0,0,1-.441,11.031,7.783,7.783,0,0,1-.37,1.725.351.351,0,0,1-.159-.111,6.491,6.491,0,0,1-.7-.962,30.038,30.038,0,0,0-2.245-3.32c-1.963-2.4-5.22-4.818-10.965-4.969V12.128c5.629-.166,8.862-2.393,10.83-4.607A28.413,28.413,0,0,0,26.6,4.433a6.281,6.281,0,0,1,.7-.89A.34.34,0,0,1,27.438,3.453ZM5.384,12.141h6.765v7.444H11.6a.812.812,0,0,0-.14-.013.863.863,0,0,0-.119.013H5.384A2.023,2.023,0,0,1,3.35,17.553V14.172A2.023,2.023,0,0,1,5.384,12.141Zm24.331,2.708h.32A1.745,1.745,0,0,1,31.725,16.6a1.621,1.621,0,0,1-1.691,1.633H29.71c.008-.674.018-1.276.018-2.029C29.728,15.7,29.718,15.313,29.715,14.848ZM6.065,20.932H10.8c.011,2.137.069,3.962.182,5.3a15.813,15.813,0,0,0,.243,1.833,1.961,1.961,0,0,0,.5,1.178c.75.748,1.1,1.152,1.1,1.833,0,.359-.069.468-.132.526a1.073,1.073,0,0,1-.692.151H9.742a1.133,1.133,0,0,1-.9-.275,1.7,1.7,0,0,1-.365-.874c-.563-2.948-1.057-5.376-1.561-7.2A14.723,14.723,0,0,0,6.065,20.932Z" fill="#812e59" stroke="#812e59" stroke-width="1"/></g></svg>