<svg xmlns="http://www.w3.org/2000/svg" width="36.737" height="36.796" viewBox="0 0 36.737 36.796"><g transform="translate(0.517 0.7)"><path d="M14.328-.057a.87.87,0,0,0-.642.57l-.713,4.278a11.556,11.556,0,0,0-2.353.927L7.126,3.294a.672.672,0,0,0-.927.071L3.418,6.146A.649.649,0,0,0,3.347,7L5.771,10.5a10.228,10.228,0,0,0-1,2.424l-4.207.713a.638.638,0,0,0-.57.713v3.922a.694.694,0,0,0,.57.713l4.278.784a8.667,8.667,0,0,0,1,2.353l-2.5,3.494a.755.755,0,0,0,.071.927L6.2,29.321a.747.747,0,0,0,.927.071l3.494-2.5a14.44,14.44,0,0,0,2.424,1l.713,4.278a.638.638,0,0,0,.713.57h3.922a.262.262,0,0,0,.214-.071v2.21a.674.674,0,0,0,.713.713H35.007a.674.674,0,0,0,.713-.713V22.618a1.993,1.993,0,0,0-2-2h-5.99a3.53,3.53,0,0,0,.285-.927l4.207-.784a.694.694,0,0,0,.57-.713V14.275a.768.768,0,0,0-.57-.713l-4.278-.713a8.667,8.667,0,0,0-1-2.353l2.5-3.565A.755.755,0,0,0,29.374,6L26.593,3.223a.747.747,0,0,0-.927-.071l-3.494,2.5a16.609,16.609,0,0,0-2.353-1L19.034.37a.694.694,0,0,0-.713-.57H14.4C14.4-.057,14.328-.057,14.328-.057Zm.713,1.426h2.71l.713,4.064a.691.691,0,0,0,.5.57,13.283,13.283,0,0,1,2.924,1.212.772.772,0,0,0,.784,0l3.351-2.424,1.925,1.925-2.353,3.423a.781.781,0,0,0-.071.784,10.556,10.556,0,0,1,1.212,2.924.774.774,0,0,0,.57.57l4.064.642v2.71l-4.064.713a.774.774,0,0,0-.57.57c-.071.357-.357,1.07-.57,1.711H20.532a5.808,5.808,0,0,0,1.854-4.278A5.918,5.918,0,1,0,16.467,22.4a5.373,5.373,0,0,0,2.353-.5.827.827,0,0,0-.285.713v4.706l-.784,3.993h-2.71L14.4,27.253a.774.774,0,0,0-.57-.57,9.727,9.727,0,0,1-2.924-1.212.772.772,0,0,0-.784,0L6.77,27.823,4.844,25.9,7.2,22.547a.772.772,0,0,0,0-.784,10.556,10.556,0,0,1-1.212-2.924.774.774,0,0,0-.57-.57l-3.993-.713v-2.71L5.415,14.2a.774.774,0,0,0,.57-.57A11.988,11.988,0,0,1,7.2,10.71a.772.772,0,0,0,0-.784L4.844,6.717,6.77,4.791l3.351,2.353a.781.781,0,0,0,.784.071A10.556,10.556,0,0,1,13.829,6a.774.774,0,0,0,.57-.57ZM16.4,11.851A4.492,4.492,0,1,1,11.9,16.343,4.474,4.474,0,0,1,16.4,11.851Zm4.136,10.2H33.581a.562.562,0,0,1,.57.57v.143H19.961v-.143A.613.613,0,0,1,20.532,22.048Zm-.57,2.139H34.223V34.17H19.961V24.187Zm9.27,2.282-.5.5-2.353,2.353-.927-.784-.57-.5-.927,1.141.57.428,1.426,1.212.5.428L29.8,27.895l.5-.5Z" transform="translate(0 0)" fill="#e5ba4f" stroke="#e5ba4f" stroke-width="1"/></g></svg>