<svg xmlns="http://www.w3.org/2000/svg" width="32.255" height="40.255" viewBox="0 0 32.255 40.255"><g transform="translate(-5.99 0.06)"><rect width="28.655" height="36.671" transform="translate(6.99 0.94)" fill="none" stroke="#4f79cf" stroke-miterlimit="10" stroke-width="2"/><rect width="25.471" height="32.595" transform="translate(11.174 5.18)" fill="#fff" stroke="#4f79cf" stroke-miterlimit="10" stroke-width="2"/><path d="M10,4V40.615H38.655V4Zm1.592,1.592H37.063V39.023H11.592Zm14.9,4.776a.8.8,0,1,0,.223,1.592h6.368a.8.8,0,1,0,0-1.592h-6.6Zm0,3.184a.8.8,0,0,0,.223,1.592h6.368a.8.8,0,0,0,0-1.592h-6.6ZM15.349,22.308a.8.8,0,1,0,.223,1.592H26.716a.8.8,0,0,0,0-1.592H15.341Zm15.124,0A.8.8,0,1,0,30.7,23.9h2.388a.8.8,0,1,0,0-1.592H30.465ZM15.349,27.083a.8.8,0,1,0,.223,1.592h8.756a.8.8,0,1,0,0-1.592H15.341Zm15.124,0a.8.8,0,1,0,.223,1.592h2.388a.8.8,0,0,0,0-1.592H30.465ZM15.349,31.859a.8.8,0,1,0,.223,1.592H26.716a.8.8,0,0,0,0-1.592H15.341Zm15.124,0a.8.8,0,1,0,.223,1.592h2.388a.8.8,0,0,0,0-1.592H30.465Z" transform="translate(-0.41 -0.42)" fill="#4f79cf"/><path d="M20.616,10.8a2.125,2.125,0,1,0,2.125,2.125A2.125,2.125,0,0,0,20.616,10.8Zm-1.7,5.516c-1.488.334-3.08,1.059-3.08,2.181v1.329h9.552V18.5c0-1.122-1.592-1.847-3.08-2.181a2.1,2.1,0,0,1-3.391,0Z" transform="translate(-1.602 -1.808)" fill="#4f79cf"/></g></svg>