<svg xmlns="http://www.w3.org/2000/svg" width="29" height="29" viewBox="0 0 29 29"><defs><style>.a{fill:#5b5b69;opacity:0.301;}.b{fill:#fff;}</style></defs><g transform="translate(-440 -1139)"><rect class="a" width="29" height="29" rx="4" transform="translate(440 1139)"/><g transform="translate(3058.812 5224.135)"><g transform="translate(-2611.463 -4077.327)"><path class="b" d="M-2604.883-4066.143v2.019a15.138,15.138,0,0,1-1.586-.218,6.691,6.691,0,0,1-4.983-6.129,6.586,6.586,0,0,1,6.325-6.851,6.29,6.29,0,0,1,5.149,2.2c.236.265.4.3.7.105.458-.3.946-.554,1.469-.855v6.245l-5.39-3.117,1.7-1.007a4.452,4.452,0,0,0-5.107-1.2,4.545,4.545,0,0,0-2.784,4.786C-2609.137-4067.965-2607.53-4066.527-2604.883-4066.143Z" transform="translate(2611.463 4077.327)"/></g></g></g></svg>