<svg xmlns="http://www.w3.org/2000/svg" width="35.362" height="35.274" viewBox="0 0 35.362 35.274"><g transform="translate(-1.383 -1.5)"><g transform="translate(1.885 2)"><path d="M25.516,2l1.043,3.055V6.62A26.1,26.1,0,0,0,21.12,7.737l-.3-.894a.809.809,0,0,0,.522-.894.808.808,0,0,0-.82-.6.274.274,0,0,0-.224.075l-1.267.447a.958.958,0,0,0-.6,1.043.661.661,0,0,0,.894.522l.3.894A26.372,26.372,0,0,0,17.1,9.525l-.447-.82a.739.739,0,0,0,.373-.969.694.694,0,0,0-.894-.447h-.075c-.075,0-.149.075-.224.149l-.447.224a.073.073,0,0,0-.075.075l-.6.3a.673.673,0,0,0-.3.969.739.739,0,0,0,.969.373l.522.82c-.82.522-1.565,1.043-2.31,1.565l-.671-.82L13,10.867a.706.706,0,0,0,.224-.82.81.81,0,0,0-.745-.522H12.4a.41.41,0,0,0-.373.224l-.447.447a.744.744,0,0,0-.373.3l-.3.224a.745.745,0,0,0,.894,1.192l.671.82c-.671.6-1.341,1.267-2.012,1.937l-.969-.82a.685.685,0,0,0,.075-.745.652.652,0,0,0-.671-.373H8.825a.754.754,0,0,0-.522.3L7.41,14.145a.711.711,0,0,0-.149.745.852.852,0,0,0,.6.522.761.761,0,0,0,.745-.3l.969.82a25.759,25.759,0,0,0-1.639,2.31L6.665,17.5v-.075a.8.8,0,0,0,0-.82.917.917,0,0,0-.745-.373H5.845a.95.95,0,0,0-.522.373l-.745,1.267a.815.815,0,0,0,.3.969.706.706,0,0,0,.969-.149l1.267.745c-.447.82-.82,1.714-1.192,2.533L4.8,21.6v-.075a.711.711,0,0,0-.149-.745.809.809,0,0,0-.671-.3.722.722,0,0,0-.6.522l-.224.6a.274.274,0,0,0-.075.224l-.224.522a.734.734,0,1,0,1.341.6l1.043.373a17.652,17.652,0,0,0-.671,2.682l-.894-.149h0a.579.579,0,0,0-.149-.6.92.92,0,0,0-.6-.3H2.865a.909.909,0,0,0-.671.6l-.149.671a.558.558,0,0,0-.075.373l-.075.447a.738.738,0,0,0,.6.82.85.85,0,0,0,.894-.447l.894.149a17.272,17.272,0,0,1-.075,2.757H1.971v5.961H36.245V2ZM27.6,3.49h7.153V30.314H5.771a23.316,23.316,0,0,1,1.267-6.929V23.31h0a.387.387,0,0,0,.149-.3A22.917,22.917,0,0,1,27.378,8.035l.671-.075V4.831l-.075-.149Zm-7.749,15.5V24.5a1.442,1.442,0,0,0-.745,1.267,1.5,1.5,0,0,0,1.49,1.49,1.442,1.442,0,0,0,1.267-.745h3.427a1.442,1.442,0,0,0,1.267.745,1.49,1.49,0,0,0,0-2.98,1.442,1.442,0,0,0-1.267.745H21.865a1.741,1.741,0,0,0-.522-.522V18.988ZM3.461,31.8H34.755v2.98H3.461Z" transform="translate(-1.885 -2)" fill="#31634b" stroke="#31634b" stroke-width="1"/></g><path d="M26.21,21.492a1.118,1.118,0,1,1-1.118,1.118,1.146,1.146,0,0,1,1.118-1.118m0-1.192a2.311,2.311,0,1,0,2.235,2.235A2.2,2.2,0,0,0,26.21,20.3Z" transform="translate(-5.612 -5.665)" fill="#31634b" stroke="#31634b" stroke-width="1"/></g></svg>