<svg xmlns="http://www.w3.org/2000/svg" width="32.316" height="35.139" viewBox="0 0 32.316 35.139"><defs><style>.a{fill:#786fb3;}</style></defs><g transform="translate(10465.794 -3260.169)"><g transform="translate(-10465.794 3270.817)"><path class="a" d="M-10440.568,3337.878a4.3,4.3,0,0,1-.987-.115l-11.829-.045h-.042v-.023c-1.165,0-2.588,0-3.977,0h-.772a4.3,4.3,0,0,1-3.634-1.812,4.266,4.266,0,0,1-.376-4.014,10.981,10.981,0,0,1,1.574-2.724,4.306,4.306,0,0,1-3.01.113,3.078,3.078,0,0,1-2.156-3.275,3.981,3.981,0,0,1,1.449-2.742c1.844-1.54,3.688-3.152,5.471-4.711l.6-.528c.038-.032.366-.326,2.62-2.35a8.83,8.83,0,0,1,5.912-2.257h.559a8.768,8.768,0,0,1,6.227,2.594c2.077,2.084,2.657,2.627,2.816,2.766,2.055,1.772,4.057,3.6,5.573,4.995a3.489,3.489,0,0,1,.859,3.81,2.937,2.937,0,0,1-2.784,2.1,3.919,3.919,0,0,1-1.328-.062,8.2,8.2,0,0,1,1.4,2.85,4.426,4.426,0,0,1-1.21,4.222A4.2,4.2,0,0,1-10440.568,3337.878Zm-15.79-3.426h.092l.91.139a4.132,4.132,0,0,1-.117-2.386,5.022,5.022,0,0,1,2.589-3.178,2.079,2.079,0,0,1,1.119-.24h.071q1.852-.005,3.718,0h2.273l.245,3.269h-2.814c-1.108,0-2.214,0-3.325,0h-.014c-.641.456-1.059.943-.438,1.873l.074.115a2.853,2.853,0,0,0,.289.4c4.474.017,7.315.02,11.3,0a.9.9,0,0,0,.71-.4.782.782,0,0,0,.146-.681,7.2,7.2,0,0,0-.976-1.927,26.575,26.575,0,0,0-3.821-4.1l-.489-.459c-1.441-1.355-1.581-1.665-1.581-3.636a8.352,8.352,0,0,1,.28-1.233l.325-.864s5.489,2.833,7.043,4.019l1.581,1.206a.632.632,0,0,0,.431.067.785.785,0,0,0-.121-.441l-1.4-1.251c-1.582-1.416-3.217-2.879-4.812-4.34-.059-.052-.186-.171-1.858-1.877a6.47,6.47,0,0,0-4.574-1.925,6.36,6.36,0,0,0-4.432,1.767c-1.937,1.837-2.048,1.939-2.1,1.982-1.352,1.186-2.732,2.381-4.066,3.535q-1.2,1.036-2.393,2.074a.288.288,0,0,0-.071.221.977.977,0,0,0,.88-.134,86.491,86.491,0,0,1,8.811-4.4,3.691,3.691,0,0,1,.563,1.065c.022.252,0,1.038.012,1.165a2.645,2.645,0,0,1-.879,2.24c-1.44,1.435-3.073,3.063-4.61,4.721a5.679,5.679,0,0,0-1.453,2.478.9.9,0,0,0,.157.756.932.932,0,0,0,.707.378c.409.019.84.013,1.295.008C-10456.852,3334.455-10456.61,3334.452-10456.358,3334.452Zm19.6-7.928Zm.1-.111Z" transform="translate(10465.796 -3313.387)"/></g><g transform="translate(-10455.887 3260.169)"><path class="a" d="M-10409.693,3273.235h-.122a6.552,6.552,0,0,1-4.64-2.008,6.529,6.529,0,0,1-1.828-4.705,6.548,6.548,0,0,1,6.71-6.351,6.449,6.449,0,0,1,4.562,1.982,6.585,6.585,0,0,1,1.818,4.74A6.507,6.507,0,0,1-10409.693,3273.235Zm-.079-3.236a3.309,3.309,0,0,0,3.354-3.317,3.216,3.216,0,0,0-.956-2.3,3.291,3.291,0,0,0-2.319-.993,3.291,3.291,0,0,0-3.339,3.228,3.348,3.348,0,0,0,.936,2.408,3.267,3.267,0,0,0,2.324.977Z" transform="translate(10416.284 -3260.17)"/></g></g></svg>