<svg xmlns="http://www.w3.org/2000/svg" width="252.617" height="44" viewBox="0 0 252.617 44"><defs><style>.a{fill:#d5d5d5;}.b{fill:#4467b0;}.c{fill:#fff;font-size:14px;font-family:Roboto-Bold, Roboto;font-weight:700;}.d{fill:#fffffe;}</style></defs><g transform="translate(-659.191 -588)"><rect class="a" width="252.617" height="43" rx="5.549" transform="translate(659.191 589)"/><rect class="b" width="252.617" height="43" rx="5.549" transform="translate(659.191 588)"/><text class="c" transform="translate(724.153 615.145)"><tspan x="0" y="0">LOG IN WITH FACEBOOK</tspan></text><g transform="translate(179 -339)"><path class="d" d="M538,959.256h-.175c-1.95,0-3.9,0-5.848.005-.178,0-.209-.057-.209-.216q.006-3.68,0-7.36c0-.226,0-.226.229-.226.731,0,1.462,0,2.193,0,.139,0,.206-.03.224-.186.09-.769.194-1.536.294-2.3.025-.186.05-.373.084-.558.026-.144-.017-.2-.17-.2-.881.005-1.761,0-2.642.006-.167,0-.218-.045-.216-.214.012-.687-.005-1.374.016-2.06a1.059,1.059,0,0,1,1.086-1.029c.6,0,1.2-.005,1.794,0,.157,0,.211-.044.21-.206-.007-.842-.005-1.684,0-2.525,0-.12-.012-.2-.166-.2-.963.011-1.929-.03-2.889.034a3.407,3.407,0,0,0-2.894,1.916,3.623,3.623,0,0,0-.4,1.761c0,.764,0,1.529,0,2.293,0,.224,0,.224-.231.224h-2.176c-.23,0-.231,0-.231.222v2.791c0,.222,0,.223.218.223.742,0,1.484,0,2.226,0,.154,0,.2.048.2.2q-.006,3.705,0,7.409c0,.147-.034.2-.193.2q-5.191-.008-10.383,0h-.174V939.021H538Z"/></g></g></svg>